<svg width="40" height="53" viewBox="0 0 40 53" fill="none" xmlns="http://www.w3.org/2000/svg">
<path d="M37.4342 0H6.33224C2.86184 0 0.0164474 2.77927 0 6.18872V46.8113C0.0164474 50.2207 2.86184 53 6.33224 53H37.4671H37.5C38.1743 53 38.7993 52.7415 39.2763 52.289C39.7368 51.8204 40 51.2064 40 50.5439V2.52073C40 1.1311 38.8487 0 37.4342 0ZM22.977 1.93902C22.977 1.58354 23.273 1.29268 23.6349 1.29268H31.3651C31.727 1.29268 32.023 1.58354 32.023 1.93902V14.0579C32.023 14.3488 31.8257 14.6073 31.5461 14.6881C31.4803 14.7043 31.4309 14.7043 31.3651 14.7043C31.1349 14.7043 30.9375 14.5912 30.8059 14.3973L28.0592 10.0991V10.0829C28.0099 9.98598 27.9276 9.92134 27.8289 9.85671C27.7303 9.79207 27.6151 9.75976 27.5 9.75976C27.2697 9.75976 27.0559 9.87287 26.9408 10.0668V10.0829L24.2105 14.3649C24.0954 14.5588 23.8816 14.672 23.6513 14.672C23.5855 14.672 23.5362 14.6558 23.4704 14.6396C23.1908 14.5588 22.9934 14.3003 22.9934 14.0256V1.93902H22.977ZM38.6678 45.5348C38.6678 45.8902 38.3717 46.1811 38.0099 46.1811L7.68092 46.2134C7.31908 46.2134 7.02303 46.5043 7.02303 46.8598C7.02303 47.2152 7.31908 47.5061 7.68092 47.5061L38.0099 47.4738C38.1908 47.4738 38.3553 47.5384 38.4704 47.6677C38.5855 47.797 38.6678 47.9585 38.6678 48.1201V50.5277C38.6678 50.8348 38.5526 51.1418 38.3224 51.368C38.3224 51.368 38.3224 51.3841 38.3059 51.3841C38.0757 51.5942 37.7796 51.7235 37.4507 51.7235H6.33224C3.58553 51.7235 1.34868 49.5259 1.34868 46.8274C1.34868 44.129 3.58553 41.9314 6.33224 41.9314H37.4507C38.125 41.9476 38.6513 42.4646 38.6678 43.111V45.5348ZM38.6678 40.0085C38.6678 40.2024 38.5855 40.3802 38.4375 40.5094C38.3224 40.6064 38.1579 40.6549 38.0099 40.6549C37.977 40.6549 37.9441 40.6549 37.8947 40.6387C37.7467 40.6226 37.6151 40.6064 37.4671 40.6064H6.33224C4.91776 40.6064 3.51974 41.075 2.41776 41.9476C2.30263 42.0445 2.15461 42.093 2.00658 42.093C1.90789 42.093 1.80921 42.0768 1.72697 42.0284C1.49671 41.9152 1.34868 41.689 1.34868 41.4466V6.18872C1.36513 3.5064 3.60197 1.30884 6.33224 1.29268H21.0033C21.3651 1.29268 21.6612 1.58354 21.6612 1.93902V15.1567C21.6283 15.9162 22.1053 16.5948 22.8454 16.8372C22.977 16.8695 23.1086 16.8857 23.2237 16.8857C23.8158 16.8857 24.4408 16.4655 24.9013 15.7384L26.9408 12.5067C27.0559 12.3128 27.2697 12.1997 27.5 12.1997C27.7303 12.1997 27.9441 12.3128 28.0592 12.5067L30.0987 15.7384C30.5592 16.4494 31.2007 16.8695 31.8092 16.8695C31.9408 16.8695 32.0724 16.8534 32.1875 16.821C32.9112 16.5787 33.3882 15.9 33.3553 15.1567C33.3553 15.1405 33.3553 15.1405 33.3553 15.1244V1.97134C33.3553 1.61585 33.6513 1.325 34.0132 1.325H37.4342C38.1086 1.325 38.6349 1.85823 38.6513 2.50457V40.0085H38.6678Z" fill="black" fill-opacity="0.4"/>
</svg>
