<svg width="1920" height="430" viewBox="0 0 1920 430" fill="none" xmlns="http://www.w3.org/2000/svg">
<g clip-path="url(#clip0)">
<rect width="1927" height="430" fill="#F8F8F8"/>
<path d="M-3.16535 -88L59.6693 -52.0945V19.7166L-3.16535 55.6221L-66 19.7166V-52.0945L-3.16535 -88Z" fill="white"/>
<path d="M-3.16535 141.796L59.6693 177.702V249.513L-3.16535 285.418L-66 249.513V177.702L-3.16535 141.796Z" fill="white"/>
<path d="M-3.16535 371.592L59.6693 407.498V479.309L-3.16535 515.214L-66 479.309V407.498L-3.16535 371.592Z" fill="white"/>
<path d="M63.2599 26.8967L126.095 62.8022V134.613L63.2599 170.519L0.425293 134.613V62.8022L63.2599 26.8967Z" fill="white"/>
<path d="M63.2599 256.693L126.095 292.598V364.409L63.2599 400.315L0.425293 364.409V292.598L63.2599 256.693Z" fill="white"/>
<path d="M129.685 -88L192.519 -52.0945V19.7166L129.685 55.6221L66.8501 19.7166V-52.0945L129.685 -88Z" fill="white"/>
<path d="M129.685 141.796L192.519 177.702V249.513L129.685 285.418L66.8501 249.513V177.702L129.685 141.796Z" fill="white"/>
<path d="M129.685 371.592L192.519 407.498V479.309L129.685 515.214L66.8501 479.309V407.498L129.685 371.592Z" fill="white"/>
<path d="M196.111 26.8967L258.945 62.8022V134.613L196.111 170.519L133.276 134.613V62.8022L196.111 26.8967Z" fill="white"/>
<path d="M196.111 256.693L258.945 292.598V364.409L196.111 400.315L133.276 364.409V292.598L196.111 256.693Z" fill="white"/>
<path d="M262.535 -88L325.37 -52.0945V19.7166L262.535 55.6221L199.701 19.7166V-52.0945L262.535 -88Z" fill="white"/>
<path d="M262.535 141.796L325.37 177.702V249.513L262.535 285.418L199.701 249.513V177.702L262.535 141.796Z" fill="white"/>
<path d="M262.535 371.592L325.37 407.498V479.309L262.535 515.214L199.701 479.309V407.498L262.535 371.592Z" fill="white"/>
<path d="M328.961 26.8967L391.795 62.8022V134.613L328.961 170.519L266.126 134.613V62.8022L328.961 26.8967Z" fill="white"/>
<path d="M328.961 256.693L391.795 292.598V364.409L328.961 400.315L266.126 364.409V292.598L328.961 256.693Z" fill="white"/>
<path d="M395.386 -88L458.221 -52.0945V19.7166L395.386 55.6221L332.551 19.7166V-52.0945L395.386 -88Z" fill="white"/>
<path d="M395.386 141.796L458.221 177.702V249.513L395.386 285.418L332.551 249.513V177.702L395.386 141.796Z" fill="white"/>
<path d="M395.386 371.592L458.221 407.498V479.309L395.386 515.214L332.551 479.309V407.498L395.386 371.592Z" fill="white"/>
<path d="M461.811 26.8967L524.645 62.8022V134.613L461.811 170.519L398.976 134.613V62.8022L461.811 26.8967Z" fill="white"/>
<path d="M461.811 256.693L524.645 292.598V364.409L461.811 400.315L398.976 364.409V292.598L461.811 256.693Z" fill="white"/>
<path d="M528.236 -88L591.071 -52.0945V19.7166L528.236 55.6221L465.401 19.7166V-52.0945L528.236 -88Z" fill="white"/>
<path d="M528.236 141.796L591.071 177.702V249.513L528.236 285.418L465.401 249.513V177.702L528.236 141.796Z" fill="white"/>
<path d="M528.236 371.592L591.071 407.498V479.309L528.236 515.214L465.401 479.309V407.498L528.236 371.592Z" fill="white"/>
<path d="M594.661 26.8967L657.496 62.8022V134.613L594.661 170.519L531.827 134.613V62.8022L594.661 26.8967Z" fill="white"/>
<path d="M594.661 256.693L657.496 292.598V364.409L594.661 400.315L531.827 364.409V292.598L594.661 256.693Z" fill="white"/>
<path d="M661.087 -88L723.921 -52.0945V19.7166L661.087 55.6221L598.252 19.7166V-52.0945L661.087 -88Z" fill="white"/>
<path d="M661.087 141.796L723.921 177.702V249.513L661.087 285.418L598.252 249.513V177.702L661.087 141.796Z" fill="white"/>
<path d="M661.087 371.592L723.921 407.498V479.309L661.087 515.214L598.252 479.309V407.498L661.087 371.592Z" fill="white"/>
<path d="M727.512 26.8967L790.347 62.8022V134.613L727.512 170.519L664.677 134.613V62.8022L727.512 26.8967Z" fill="white"/>
<path d="M727.512 256.693L790.347 292.598V364.409L727.512 400.315L664.677 364.409V292.598L727.512 256.693Z" fill="white"/>
<path d="M793.937 -88L856.771 -52.0945V19.7166L793.937 55.6221L731.102 19.7166V-52.0945L793.937 -88Z" fill="white"/>
<path d="M793.937 141.796L856.771 177.702V249.513L793.937 285.418L731.102 249.513V177.702L793.937 141.796Z" fill="white"/>
<path d="M793.937 371.592L856.771 407.498V479.309L793.937 515.214L731.102 479.309V407.498L793.937 371.592Z" fill="white"/>
<path d="M860.363 26.8967L923.198 62.8022V134.613L860.363 170.519L797.528 134.613V62.8022L860.363 26.8967Z" fill="white"/>
<path d="M860.363 256.693L923.198 292.598V364.409L860.363 400.315L797.528 364.409V292.598L860.363 256.693Z" fill="white"/>
<path d="M926.787 -88L989.621 -52.0945V19.7166L926.787 55.6221L863.952 19.7166V-52.0945L926.787 -88Z" fill="white"/>
<path d="M926.787 141.796L989.621 177.702V249.513L926.787 285.418L863.952 249.513V177.702L926.787 141.796Z" fill="white"/>
<path d="M926.787 371.592L989.621 407.498V479.309L926.787 515.214L863.952 479.309V407.498L926.787 371.592Z" fill="white"/>
<path d="M993.213 26.8967L1056.05 62.8022V134.613L993.213 170.519L930.378 134.613V62.8022L993.213 26.8967Z" fill="white"/>
<path d="M993.213 256.693L1056.05 292.598V364.409L993.213 400.315L930.378 364.409V292.598L993.213 256.693Z" fill="white"/>
<path d="M1059.64 -88L1122.47 -52.0945V19.7166L1059.64 55.6221L996.803 19.7166V-52.0945L1059.64 -88Z" fill="white"/>
<path d="M1059.64 141.796L1122.47 177.702V249.513L1059.64 285.418L996.803 249.513V177.702L1059.64 141.796Z" fill="white"/>
<path d="M1059.64 371.592L1122.47 407.498V479.309L1059.64 515.214L996.803 479.309V407.498L1059.64 371.592Z" fill="white"/>
<path d="M1126.06 26.8967L1188.9 62.8022V134.613L1126.06 170.519L1063.23 134.613V62.8022L1126.06 26.8967Z" fill="white"/>
<path d="M1126.06 256.693L1188.9 292.598V364.409L1126.06 400.315L1063.23 364.409V292.598L1126.06 256.693Z" fill="white"/>
<path d="M1192.49 -88L1255.32 -52.0945V19.7166L1192.49 55.6221L1129.65 19.7166V-52.0945L1192.49 -88Z" fill="white"/>
<path d="M1192.49 141.796L1255.32 177.702V249.513L1192.49 285.418L1129.65 249.513V177.702L1192.49 141.796Z" fill="white"/>
<path d="M1192.49 371.592L1255.32 407.498V479.309L1192.49 515.214L1129.65 479.309V407.498L1192.49 371.592Z" fill="white"/>
<path d="M1258.91 26.8967L1321.75 62.8022V134.613L1258.91 170.519L1196.08 134.613V62.8022L1258.91 26.8967Z" fill="white"/>
<path d="M1258.91 256.693L1321.75 292.598V364.409L1258.91 400.315L1196.08 364.409V292.598L1258.91 256.693Z" fill="white"/>
<path d="M1325.34 -88L1388.17 -52.0945V19.7166L1325.34 55.6221L1262.5 19.7166V-52.0945L1325.34 -88Z" fill="white"/>
<path d="M1325.34 141.796L1388.17 177.702V249.513L1325.34 285.418L1262.5 249.513V177.702L1325.34 141.796Z" fill="white"/>
<path d="M1325.34 371.592L1388.17 407.498V479.309L1325.34 515.214L1262.5 479.309V407.498L1325.34 371.592Z" fill="white"/>
<path d="M1391.76 26.8967L1454.6 62.8022V134.613L1391.76 170.519L1328.93 134.613V62.8022L1391.76 26.8967Z" fill="white"/>
<path d="M1391.76 256.693L1454.6 292.598V364.409L1391.76 400.315L1328.93 364.409V292.598L1391.76 256.693Z" fill="white"/>
<path d="M1458.19 -88L1521.02 -52.0945V19.7166L1458.19 55.6221L1395.35 19.7166V-52.0945L1458.19 -88Z" fill="white"/>
<path d="M1458.19 141.796L1521.02 177.702V249.513L1458.19 285.418L1395.35 249.513V177.702L1458.19 141.796Z" fill="white"/>
<path d="M1458.19 371.592L1521.02 407.498V479.309L1458.19 515.214L1395.35 479.309V407.498L1458.19 371.592Z" fill="white"/>
<path d="M1524.61 26.8967L1587.45 62.8022V134.613L1524.61 170.519L1461.78 134.613V62.8022L1524.61 26.8967Z" fill="white"/>
<path d="M1524.61 256.693L1587.45 292.598V364.409L1524.61 400.315L1461.78 364.409V292.598L1524.61 256.693Z" fill="white"/>
<path d="M1591.04 -88L1653.87 -52.0945V19.7166L1591.04 55.6221L1528.2 19.7166V-52.0945L1591.04 -88Z" fill="white"/>
<path d="M1591.04 141.796L1653.87 177.702V249.513L1591.04 285.418L1528.2 249.513V177.702L1591.04 141.796Z" fill="white"/>
<path d="M1591.04 371.592L1653.87 407.498V479.309L1591.04 515.214L1528.2 479.309V407.498L1591.04 371.592Z" fill="white"/>
<path d="M1657.47 26.8967L1720.3 62.8022V134.613L1657.47 170.519L1594.63 134.613V62.8022L1657.47 26.8967Z" fill="white"/>
<path d="M1657.47 256.693L1720.3 292.598V364.409L1657.47 400.315L1594.63 364.409V292.598L1657.47 256.693Z" fill="white"/>
<path d="M1723.89 -88L1786.73 -52.0945V19.7166L1723.89 55.6221L1661.06 19.7166V-52.0945L1723.89 -88Z" fill="white"/>
<path d="M1723.89 141.796L1786.73 177.702V249.513L1723.89 285.418L1661.06 249.513V177.702L1723.89 141.796Z" fill="white"/>
<path d="M1723.89 371.592L1786.73 407.498V479.309L1723.89 515.214L1661.06 479.309V407.498L1723.89 371.592Z" fill="white"/>
<path d="M1790.32 26.8967L1853.15 62.8022V134.613L1790.32 170.519L1727.48 134.613V62.8022L1790.32 26.8967Z" fill="white"/>
<path d="M1790.32 256.693L1853.15 292.598V364.409L1790.32 400.315L1727.48 364.409V292.598L1790.32 256.693Z" fill="white"/>
<path d="M1856.74 -88L1919.57 -52.0945V19.7166L1856.74 55.6221L1793.91 19.7166V-52.0945L1856.74 -88Z" fill="white"/>
<path d="M1856.74 141.796L1919.57 177.702V249.513L1856.74 285.418L1793.91 249.513V177.702L1856.74 141.796Z" fill="white"/>
<path d="M1856.74 371.592L1919.57 407.498V479.309L1856.74 515.214L1793.91 479.309V407.498L1856.74 371.592Z" fill="white"/>
<path d="M1923.17 26.8967L1986 62.8022V134.613L1923.17 170.519L1860.33 134.613V62.8022L1923.17 26.8967Z" fill="white"/>
<path d="M1923.17 256.693L1986 292.598V364.409L1923.17 400.315L1860.33 364.409V292.598L1923.17 256.693Z" fill="white"/>
<g filter="url(#filter0_d)">
<path d="M262.535 371.592L325.37 407.498V479.309L262.535 515.214L199.701 479.309V407.498L262.535 371.592Z" fill="white"/>
<path d="M461.811 26.8992L524.645 62.8047V134.616L461.811 170.521L398.976 134.616V62.8047L461.811 26.8992Z" fill="white"/>
<path d="M1325.34 141.796L1388.17 177.702V249.513L1325.34 285.418L1262.5 249.513V177.702L1325.34 141.796Z" fill="white"/>
<path d="M1391.76 26.8992L1454.6 62.8047V134.616L1391.76 170.521L1328.93 134.616V62.8047L1391.76 26.8992Z" fill="white"/>
<path d="M1723.89 141.796L1786.73 177.702V249.513L1723.89 285.418L1661.06 249.513V177.702L1723.89 141.796Z" fill="white"/>
<path d="M1790.32 256.695L1853.15 292.601V364.412L1790.32 400.317L1727.48 364.412V292.601L1790.32 256.695Z" fill="white"/>
</g>
</g>
<defs>
<filter id="filter0_d" x="164.701" y="-8.10083" width="1739.45" height="1148.8" filterUnits="userSpaceOnUse" color-interpolation-filters="sRGB">
<feFlood flood-opacity="0" result="BackgroundImageFix"/>
<feColorMatrix in="SourceAlpha" type="matrix" values="0 0 0 0 0 0 0 0 0 0 0 0 0 0 0 0 0 0 127 0"/>
<feOffset dx="8" dy="8"/>
<feGaussianBlur stdDeviation="21.5"/>
<feColorMatrix type="matrix" values="0 0 0 0 0 0 0 0 0 0 0 0 0 0 0 0 0 0 0.06 0"/>
<feBlend mode="normal" in2="BackgroundImageFix" result="effect1_dropShadow"/>
<feBlend mode="normal" in="SourceGraphic" in2="effect1_dropShadow" result="shape"/>
</filter>
<clipPath id="clip0">
<rect width="1927" height="430" fill="white"/>
</clipPath>
</defs>
</svg>
