<svg width="168" height="188" viewBox="0 0 168 188" fill="none" xmlns="http://www.w3.org/2000/svg">
<path d="M35.7979 159.95V56.5285L48.1444 62.7737V160.021L35.7979 159.95ZM77.9465 182.433V79.8322L90.293 80.0463V182.433H77.9465ZM0 141.321V47.2855L12.4175 41.3257V138.573L0 141.321ZM81.7693 91.145L1.52558 52.4601L15.9654 45.8223L87.1266 79.9393L81.8048 91.145H81.7693ZM161.791 57.9203L79.1882 11.3485L84.1197 0L167.831 47.0714L161.827 57.9203H161.791ZM84.5455 188L0 141.535L5.99588 130.677L89.9205 176.83L84.5455 188ZM9.6147 56.1002L0 47.2855L84.1197 0.214123L89.9914 11.3396L9.6147 56.1002ZM155.645 140.857V51.3895L167.991 47.1071V140.893L155.645 140.857ZM84.918 141.58L79.2414 130.553L158.909 89.0841L164.585 100.12L84.918 141.616V141.58ZM82.2571 92.9383L76.9353 81.7325L158.536 42.2893L163.858 53.4951L82.2571 92.9383ZM84.5544 187.964L79.1527 176.785L159.929 131.043L168 140.643L84.5544 187.929V187.964Z" fill="#6ADFBE"/>
</svg>
