<svg width="56" height="56" viewBox="0 0 56 56" fill="none" xmlns="http://www.w3.org/2000/svg">
<circle cx="28" cy="28" r="28" fill="#6ADFBE"/>
<path d="M19.9663 39.4595V21.4891L22.0241 22.5742V39.4719L19.9663 39.4595ZM26.9911 43.3661V25.5383L29.0488 25.5755V43.3661H26.9911ZM14 36.2226V19.883L16.0696 18.8475V35.7451L14 36.2226ZM27.6282 27.504L14.2543 20.7822L16.6609 19.6288L28.5211 25.5569L27.6341 27.504H27.6282ZM40.9652 21.7309L27.198 13.6387L28.02 11.6667L41.9719 19.8458L40.9711 21.7309H40.9652ZM28.0909 44.3334L14 36.2598L14.9993 34.3731L28.9867 42.3925L28.0909 44.3334ZM15.6024 21.4147L14 19.883L28.02 11.704L28.9986 13.6371L15.6024 21.4147ZM39.9408 36.1419V20.5961L41.9985 19.852V36.1481L39.9408 36.1419ZM28.153 36.2675L27.2069 34.3514L40.4848 27.1459L41.4309 29.0635L28.153 36.2737V36.2675ZM27.7095 27.8156L26.8226 25.8685L40.4227 19.0149L41.3096 20.962L27.7095 27.8156ZM28.0924 44.3272L27.1921 42.3848L40.6548 34.4367L42 36.1047L28.0924 44.321V44.3272Z" fill="white"/>
</svg>
