<svg width="200" height="56" viewBox="0 0 200 56" fill="none" xmlns="http://www.w3.org/2000/svg">
<rect width="56" height="56" rx="28" fill="#17CFA1"/>
<path d="M28.0073 43.7498L13.9999 35.2808L14.0001 20.8727L21.2146 25.2347L21.2135 30.9205L28.0064 35.0275L34.785 30.9276L34.7861 25.2417L41.9997 20.8815L41.9995 35.2895L28.0073 43.7498Z" fill="white"/>
<path d="M28.0077 26.83L14.0002 18.361L21.2123 13.9998L28.0052 18.1068L34.7853 14.0078L41.9999 18.3697L28.0077 26.83Z" fill="white"/>
<circle cx="100" cy="28" r="28" fill="#6ADFBE"/>
<path d="M91.9663 39.4595V21.4891L94.0241 22.5742V39.4719L91.9663 39.4595ZM98.9911 43.3661V25.5383L101.049 25.5755V43.3661H98.9911ZM86 36.2226V19.883L88.0696 18.8475V35.7451L86 36.2226ZM99.6282 27.504L86.2543 20.7822L88.6609 19.6288L100.521 25.5569L99.6341 27.504H99.6282ZM112.965 21.7309L99.198 13.6387L100.02 11.6667L113.972 19.8458L112.971 21.7309H112.965ZM100.091 44.3334L86 36.2598L86.9993 34.3731L100.987 42.3925L100.091 44.3334ZM87.6024 21.4147L86 19.883L100.02 11.704L100.999 13.6371L87.6024 21.4147ZM111.941 36.1419V20.5961L113.999 19.852V36.1481L111.941 36.1419ZM100.153 36.2675L99.2069 34.3514L112.485 27.1459L113.431 29.0635L100.153 36.2737V36.2675ZM99.7095 27.8156L98.8226 25.8685L112.423 19.0149L113.31 20.962L99.7095 27.8156ZM100.092 44.3272L99.1921 42.3848L112.655 34.4367L114 36.1047L100.092 44.321V44.3272Z" fill="white"/>
<circle cx="172" cy="28" r="28" fill="white"/>
<circle cx="172" cy="28" r="27.5" stroke="black" stroke-opacity="0.15"/>
<path d="M163.966 39.4595V21.4891L166.024 22.5742V39.4719L163.966 39.4595ZM170.991 43.3661V25.5383L173.049 25.5755V43.3661H170.991ZM158 36.2226V19.883L160.07 18.8475V35.7451L158 36.2226ZM171.628 27.504L158.254 20.7822L160.661 19.6288L172.521 25.5569L171.634 27.504H171.628ZM184.965 21.7309L171.198 13.6387L172.02 11.6667L185.972 19.8458L184.971 21.7309H184.965ZM172.091 44.3334L158 36.2598L158.999 34.3731L172.987 42.3925L172.091 44.3334ZM159.602 21.4147L158 19.883L172.02 11.704L172.999 13.6371L159.602 21.4147ZM183.941 36.1419V20.5961L185.999 19.852V36.1481L183.941 36.1419ZM172.153 36.2675L171.207 34.3514L184.485 27.1459L185.431 29.0635L172.153 36.2737V36.2675ZM171.71 27.8156L170.823 25.8685L184.423 19.0149L185.31 20.962L171.71 27.8156ZM172.092 44.3272L171.192 42.3848L184.655 34.4367L186 36.1047L172.092 44.321V44.3272Z" fill="url(#paint0_linear)"/>
<defs>
<linearGradient id="paint0_linear" x1="156.727" y1="28.0001" x2="187.273" y2="28.0001" gradientUnits="userSpaceOnUse">
<stop stop-color="#30AD8E"/>
<stop offset="1" stop-color="#6ADFBE"/>
</linearGradient>
</defs>
</svg>
