<svg width="272" height="56" viewBox="0 0 272 56" fill="none" xmlns="http://www.w3.org/2000/svg">
<rect x="72" width="56" height="56" rx="28" fill="#17CFA1"/>
<path d="M100.007 43.7498L85.9999 35.2808L86.0001 20.8727L93.2146 25.2347L93.2135 30.9205L100.006 35.0275L106.785 30.9276L106.786 25.2417L114 20.8815L114 35.2895L100.007 43.7498Z" fill="white"/>
<path d="M100.008 26.83L86.0002 18.361L93.2123 13.9998L100.005 18.1068L106.785 14.0078L114 18.3697L100.008 26.83Z" fill="white"/>
<rect width="56" height="56" rx="28" fill="url(#paint0_linear)"/>
<path d="M42.1463 19.8875L41.8157 36.2528L29.3378 43.4566L29.5081 35.0277L34.4328 32.1857L34.5931 24.2494L27.6532 20.4289L22.7285 23.2709L15.3456 19.2039L27.8235 12L42.1463 19.8875Z" fill="white"/>
<path d="M27.4932 28.3471L27.1625 44.7123L19.7796 40.6471L19.9399 32.7108L13 28.8885L13.1703 20.4596L27.4932 28.3471Z" fill="white"/>
<circle cx="172" cy="28" r="28" fill="#6ADFBE"/>
<path d="M163.966 39.4595V21.4891L166.024 22.5742V39.4719L163.966 39.4595ZM170.991 43.3661V25.5383L173.049 25.5755V43.3661H170.991ZM158 36.2226V19.883L160.07 18.8475V35.7451L158 36.2226ZM171.628 27.504L158.254 20.7822L160.661 19.6288L172.521 25.5569L171.634 27.504H171.628ZM184.965 21.7309L171.198 13.6387L172.02 11.6667L185.972 19.8458L184.971 21.7309H184.965ZM172.091 44.3334L158 36.2598L158.999 34.3731L172.987 42.3925L172.091 44.3334ZM159.602 21.4147L158 19.883L172.02 11.704L172.999 13.6371L159.602 21.4147ZM183.941 36.1419V20.5961L185.999 19.852V36.1481L183.941 36.1419ZM172.153 36.2675L171.207 34.3514L184.485 27.1459L185.431 29.0635L172.153 36.2737V36.2675ZM171.71 27.8156L170.823 25.8685L184.423 19.0149L185.31 20.962L171.71 27.8156ZM172.092 44.3272L171.192 42.3848L184.655 34.4367L186 36.1047L172.092 44.321V44.3272Z" fill="white"/>
<circle cx="244" cy="28" r="28" fill="white"/>
<circle cx="244" cy="28" r="27.5" stroke="black" stroke-opacity="0.15"/>
<path d="M235.966 39.4595V21.4891L238.024 22.5742V39.4719L235.966 39.4595ZM242.991 43.3661V25.5383L245.049 25.5755V43.3661H242.991ZM230 36.2226V19.883L232.07 18.8475V35.7451L230 36.2226ZM243.628 27.504L230.254 20.7822L232.661 19.6288L244.521 25.5569L243.634 27.504H243.628ZM256.965 21.7309L243.198 13.6387L244.02 11.6667L257.972 19.8458L256.971 21.7309H256.965ZM244.091 44.3334L230 36.2598L230.999 34.3731L244.987 42.3925L244.091 44.3334ZM231.602 21.4147L230 19.883L244.02 11.704L244.999 13.6371L231.602 21.4147ZM255.941 36.1419V20.5961L257.999 19.852V36.1481L255.941 36.1419ZM244.153 36.2675L243.207 34.3514L256.485 27.1459L257.431 29.0635L244.153 36.2737V36.2675ZM243.71 27.8156L242.823 25.8685L256.423 19.0149L257.31 20.962L243.71 27.8156ZM244.092 44.3272L243.192 42.3848L256.655 34.4367L258 36.1047L244.092 44.321V44.3272Z" fill="url(#paint1_linear)"/>
<defs>
<linearGradient id="paint0_linear" x1="-17.3091" y1="28" x2="28.0224" y2="28.1481" gradientUnits="userSpaceOnUse">
<stop stop-color="#00F5A0"/>
<stop offset="1" stop-color="#00D9F5"/>
</linearGradient>
<linearGradient id="paint1_linear" x1="228.727" y1="28.0001" x2="259.273" y2="28.0001" gradientUnits="userSpaceOnUse">
<stop stop-color="#30AD8E"/>
<stop offset="1" stop-color="#6ADFBE"/>
</linearGradient>
</defs>
</svg>
