<svg width="180" height="40" viewBox="0 0 180 40" fill="none" xmlns="http://www.w3.org/2000/svg">
<path d="M7.67098 34.0319V12.0273L10.3167 13.3561V34.0471L7.67098 34.0319ZM16.7028 38.8155V16.9856L19.3485 17.0311V38.8155H16.7028ZM0 30.0683V10.0607L2.66089 8.79271V29.4837L0 30.0683ZM17.522 19.3926L0.32691 11.1617L3.42115 9.74943L18.67 17.0084L17.5296 19.3926H17.522ZM34.6696 12.3235L16.9689 2.41458L18.0257 0L35.9639 10.0152L34.6772 12.3235H34.6696ZM18.1169 40L0 30.1139L1.28483 27.8037L19.2687 37.6234L18.1169 40ZM2.06029 11.9362L0 10.0607L18.0257 0.0455581L19.2839 2.41268L2.06029 11.9362ZM33.3524 29.9696V10.9339L35.9981 10.0228V29.9772L33.3524 29.9696ZM18.1967 30.1234L16.9803 27.7771L34.0518 18.9541L35.2683 21.3022L18.1967 30.131V30.1234ZM17.6265 19.7741L16.4861 17.3899L33.972 8.99772L35.1124 11.3819L17.6265 19.7741ZM18.1188 39.9924L16.9613 37.6139L34.2704 27.8815L36 29.9241L18.1188 39.9848V39.9924Z" fill="url(#paint0_linear)"/>
<path d="M54.56 13V15.64H50.78V27H48.02V15.64H44.26V13H54.56ZM64.7108 19.74C65.9374 20.4467 66.5508 21.5133 66.5508 22.94C66.5508 24.1267 66.1308 25.1 65.2908 25.86C64.4508 26.62 63.4174 27 62.1908 27H56.2508V13H61.7708C62.9708 13 63.9774 13.3733 64.7908 14.12C65.6174 14.8533 66.0308 15.7933 66.0308 16.94C66.0308 18.1 65.5908 19.0333 64.7108 19.74ZM61.7708 15.58H59.0108V18.66H61.7708C62.1974 18.66 62.5508 18.5133 62.8308 18.22C63.1241 17.9267 63.2708 17.56 63.2708 17.12C63.2708 16.68 63.1308 16.3133 62.8508 16.02C62.5708 15.7267 62.2108 15.58 61.7708 15.58ZM62.1908 24.42C62.6574 24.42 63.0441 24.2667 63.3508 23.96C63.6574 23.64 63.8108 23.24 63.8108 22.76C63.8108 22.2933 63.6574 21.9067 63.3508 21.6C63.0441 21.28 62.6574 21.12 62.1908 21.12H59.0108V24.42H62.1908ZM75.1502 27.28C73.0435 27.28 71.3035 26.58 69.9302 25.18C68.5568 23.78 67.8702 22.0533 67.8702 20C67.8702 17.9333 68.5568 16.2067 69.9302 14.82C71.3035 13.42 73.0435 12.72 75.1502 12.72C76.4168 12.72 77.5835 13.02 78.6502 13.62C79.7302 14.2067 80.5702 15.0067 81.1702 16.02L78.7902 17.4C78.4435 16.7733 77.9502 16.2867 77.3102 15.94C76.6702 15.58 75.9502 15.4 75.1502 15.4C73.7902 15.4 72.6902 15.8267 71.8502 16.68C71.0235 17.5333 70.6102 18.64 70.6102 20C70.6102 21.3467 71.0235 22.4467 71.8502 23.3C72.6902 24.1533 73.7902 24.58 75.1502 24.58C75.9502 24.58 76.6702 24.4067 77.3102 24.06C77.9635 23.7 78.4568 23.2133 78.7902 22.6L81.1702 23.98C80.5702 24.9933 79.7368 25.8 78.6702 26.4C77.6035 26.9867 76.4302 27.28 75.1502 27.28ZM89.5189 27.28C87.4122 27.28 85.6722 26.58 84.2989 25.18C82.9256 23.78 82.2389 22.0533 82.2389 20C82.2389 17.9333 82.9256 16.2067 84.2989 14.82C85.6722 13.42 87.4122 12.72 89.5189 12.72C90.7856 12.72 91.9522 13.02 93.0189 13.62C94.0989 14.2067 94.9389 15.0067 95.5389 16.02L93.1589 17.4C92.8122 16.7733 92.3189 16.2867 91.6789 15.94C91.0389 15.58 90.3189 15.4 89.5189 15.4C88.1589 15.4 87.0589 15.8267 86.2189 16.68C85.3922 17.5333 84.9789 18.64 84.9789 20C84.9789 21.3467 85.3922 22.4467 86.2189 23.3C87.0589 24.1533 88.1589 24.58 89.5189 24.58C90.3189 24.58 91.0389 24.4067 91.6789 24.06C92.3322 23.7 92.8256 23.2133 93.1589 22.6L95.5389 23.98C94.9389 24.9933 94.1056 25.8 93.0389 26.4C91.9722 26.9867 90.7989 27.28 89.5189 27.28ZM110.791 13H113.551V27H111.451L105.451 18.44V27H102.691V13H104.791L110.791 21.54V13ZM118.358 23.06C118.704 24.3133 119.644 24.94 121.178 24.94C122.164 24.94 122.911 24.6067 123.418 23.94L125.498 25.14C124.511 26.5667 123.058 27.28 121.138 27.28C119.484 27.28 118.158 26.78 117.158 25.78C116.158 24.78 115.658 23.52 115.658 22C115.658 20.4933 116.151 19.24 117.138 18.24C118.124 17.2267 119.391 16.72 120.938 16.72C122.404 16.72 123.611 17.2267 124.558 18.24C125.518 19.2533 125.998 20.5067 125.998 22C125.998 22.3333 125.964 22.6867 125.898 23.06H118.358ZM118.318 21.06H123.418C123.271 20.38 122.964 19.8733 122.498 19.54C122.044 19.2067 121.524 19.04 120.938 19.04C120.244 19.04 119.671 19.22 119.218 19.58C118.764 19.9267 118.464 20.42 118.318 21.06ZM133.376 19.48H131.116V23.64C131.116 23.9867 131.202 24.24 131.376 24.4C131.549 24.56 131.802 24.6533 132.136 24.68C132.469 24.6933 132.882 24.6867 133.376 24.66V27C131.602 27.2 130.349 27.0333 129.616 26.5C128.896 25.9667 128.536 25.0133 128.536 23.64V19.48H126.796V17H128.536V14.98L131.116 14.2V17H133.376V19.48ZM146.761 17H149.501L146.321 27H143.861L142.021 20.94L140.181 27H137.721L134.541 17H137.281L138.981 23.14L140.801 17H143.241L145.061 23.16L146.761 17ZM159.171 25.76C158.144 26.7733 156.891 27.28 155.411 27.28C153.931 27.28 152.678 26.7733 151.651 25.76C150.638 24.7333 150.131 23.48 150.131 22C150.131 20.52 150.638 19.2733 151.651 18.26C152.678 17.2333 153.931 16.72 155.411 16.72C156.891 16.72 158.144 17.2333 159.171 18.26C160.198 19.2733 160.711 20.52 160.711 22C160.711 23.48 160.198 24.7333 159.171 25.76ZM153.471 23.98C153.991 24.5 154.638 24.76 155.411 24.76C156.184 24.76 156.831 24.5 157.351 23.98C157.871 23.46 158.131 22.8 158.131 22C158.131 21.2 157.871 20.54 157.351 20.02C156.831 19.5 156.184 19.24 155.411 19.24C154.638 19.24 153.991 19.5 153.471 20.02C152.964 20.54 152.711 21.2 152.711 22C152.711 22.8 152.964 23.46 153.471 23.98ZM165.256 18.72C165.496 18.08 165.889 17.6 166.436 17.28C166.996 16.96 167.616 16.8 168.296 16.8V19.68C167.509 19.5867 166.803 19.7467 166.176 20.16C165.563 20.5733 165.256 21.26 165.256 22.22V27H162.676V17H165.256V18.72ZM179.175 27H176.175L172.535 22.46V27H169.955V13H172.535V21.4L175.975 17H179.055L175.035 21.94L179.175 27Z" fill="black" fill-opacity="0.87"/>
<defs>
<linearGradient id="paint0_linear" x1="-1.63636" y1="20" x2="37.6364" y2="20" gradientUnits="userSpaceOnUse">
<stop stop-color="#30AD8E"/>
<stop offset="1" stop-color="#6ADFBE"/>
</linearGradient>
</defs>
</svg>
