<svg width="48" height="54" viewBox="0 0 48 54" fill="none" xmlns="http://www.w3.org/2000/svg">
<path d="M10.228 45.9431V16.2369L13.7556 18.0308V45.9636L10.228 45.9431ZM22.2704 52.4009V22.9305L25.798 22.992V52.4009H22.2704ZM0 40.5923V13.582L3.54786 11.8702V39.803L0 40.5923ZM23.3627 26.18L0.43588 15.0683L4.56153 13.1617L24.8933 22.9613L23.3728 26.18H23.3627ZM46.2261 16.6367L22.6252 3.25968L24.0342 0L47.9519 13.5205L46.2362 16.6367H46.2261ZM24.1559 54L0 40.6538L1.71311 37.535L25.6916 50.7916L24.1559 54ZM2.74706 16.1139L0 13.582L24.0342 0.0615034L25.7118 3.25712L2.74706 16.1139ZM44.4699 40.459V14.7608L47.9975 13.5308V40.4692L44.4699 40.459ZM24.2623 40.6666L22.6404 37.4991L45.4025 25.588L47.0243 28.758L24.2623 40.6768V40.6666ZM23.502 26.695L21.9815 23.4764L45.296 12.1469L46.8165 15.3656L23.502 26.695ZM24.1584 53.9897L22.6151 50.7788L45.6939 37.6401L48 40.3975L24.1584 53.9795V53.9897Z" fill="url(#paint0_linear)"/>
<defs>
<linearGradient id="paint0_linear" x1="-2.18182" y1="27" x2="50.1818" y2="27" gradientUnits="userSpaceOnUse">
<stop stop-color="#30AD8E"/>
<stop offset="1" stop-color="#6ADFBE"/>
</linearGradient>
</defs>
</svg>
