<svg width="376" height="178" viewBox="0 0 376 178" fill="none" xmlns="http://www.w3.org/2000/svg">
<g clip-path="url(#clip0)">
<path d="M45.0697 141.481L-0.0239669 115.258L-0.023312 70.6458L23.2022 84.1521L23.1985 101.757L45.0667 114.474L66.8888 101.779L66.8925 84.1739L90.115 70.673L90.1143 115.286L45.0697 141.481Z" fill="url(#paint0_linear)"/>
<path d="M45.0709 89.0917L-0.0227731 62.8686L23.1947 49.3647L45.0629 62.0816L66.89 49.3895L90.1155 62.8957L45.0709 89.0917Z" fill="url(#paint1_linear)"/>
</g>
<path d="M123.146 47.0669H137.298V129.624H121.023V64.2858L105.455 68.6495L101.445 54.7328L123.146 47.0669Z" fill="url(#paint2_linear)"/>
<path d="M179.851 83.2736V69.0031H231.154V83.2736H179.851ZM179.851 107.687V93.4163H231.154V107.687H179.851Z" fill="black" fill-opacity="0.87"/>
<path d="M327.16 106.507C327.16 113.426 324.958 119.048 320.555 123.373C316.152 127.618 310.413 130.174 303.336 131.039V141.417H295.435V131.156C288.83 130.685 283.169 128.837 278.451 125.613C273.734 122.39 270.353 118.026 268.309 112.522L282.343 104.385C284.859 110.675 289.223 114.252 295.435 115.117V94.7136C295.356 94.7136 295.317 94.7136 295.317 94.7136L295.081 94.5957C292.329 93.5736 290.088 92.6694 288.358 91.8831C286.629 91.0968 284.584 89.9568 282.225 88.4629C279.945 86.969 278.137 85.4358 276.8 83.8633C275.542 82.2122 274.402 80.1286 273.38 77.6126C272.437 75.0966 271.965 72.3447 271.965 69.3569C271.965 62.4379 274.206 56.8948 278.687 52.7277C283.248 48.5605 288.83 46.1624 295.435 45.5334V35.2728H303.336V45.7693C314.029 47.0273 321.578 52.5704 325.981 62.3986L312.3 70.4184C310.413 65.7008 307.425 62.831 303.336 61.8089V81.5046C310.649 84.4137 315.563 86.7331 318.079 88.4629C324.133 92.7873 327.16 98.8021 327.16 106.507ZM288.122 69.4749C288.122 71.2046 288.673 72.7378 289.774 74.0745C290.874 75.3325 292.761 76.6298 295.435 77.9664V61.4551C293.076 61.9268 291.267 62.8703 290.009 64.2856C288.751 65.7008 288.122 67.4306 288.122 69.4749ZM303.336 114.881C308.368 113.78 310.884 111.028 310.884 106.625C310.884 104.66 310.255 103.009 308.997 101.672C307.818 100.335 305.931 99.0773 303.336 97.8979V114.881ZM353.332 47.0666H367.484V129.623H351.209V64.2856L335.641 68.6493L331.631 54.7326L353.332 47.0666Z" fill="url(#paint3_linear)"/>
<defs>
<linearGradient id="paint0_linear" x1="81.4919" y1="25.4941" x2="44.453" y2="88.7729" gradientUnits="userSpaceOnUse">
<stop stop-color="#00F5A0"/>
<stop offset="1" stop-color="#00D9F5"/>
</linearGradient>
<linearGradient id="paint1_linear" x1="81.4919" y1="25.4941" x2="44.453" y2="88.7729" gradientUnits="userSpaceOnUse">
<stop stop-color="#00F5A0"/>
<stop offset="1" stop-color="#00D9F5"/>
</linearGradient>
<linearGradient id="paint2_linear" x1="85.9716" y1="89.0771" x2="123.099" y2="89.1085" gradientUnits="userSpaceOnUse">
<stop stop-color="#00F5A0"/>
<stop offset="1" stop-color="#00D9F5"/>
</linearGradient>
<linearGradient id="paint3_linear" x1="260.331" y1="88.8487" x2="381.029" y2="88.8487" gradientUnits="userSpaceOnUse">
<stop stop-color="#30AD8E"/>
<stop offset="1" stop-color="#6ADFBE"/>
</linearGradient>
<clipPath id="clip0">
<rect width="90.0916" height="104.834" fill="white" transform="translate(0 36.6602)"/>
</clipPath>
</defs>
</svg>
