<svg width="33" height="32" viewBox="0 0 33 32" fill="none" xmlns="http://www.w3.org/2000/svg">
<path d="M15.2204 23.04C10.6124 23.04 6.90039 19.328 6.90039 14.72C6.90039 10.112 10.6124 6.39999 15.2204 6.39999C19.8284 6.39999 23.5404 10.112 23.5404 14.72C23.5404 19.328 19.8284 23.04 15.2204 23.04ZM15.2204 7.67999C11.3164 7.67999 8.18039 10.816 8.18039 14.72C8.18039 18.624 11.3164 21.76 15.2204 21.76C19.1244 21.76 22.2604 18.624 22.2604 14.72C22.2604 10.816 19.1244 7.67999 15.2204 7.67999Z" fill="black" fill-opacity="0.4"/>
<path d="M21.4167 20.0109L27.1639 25.7581L26.2589 26.6631L20.5117 20.9159L21.4167 20.0109Z" fill="black" fill-opacity="0.4"/>
</svg>
