<svg width="770" height="292" viewBox="0 0 770 292" fill="none" xmlns="http://www.w3.org/2000/svg">
<path d="M333.798 159.95V56.5285L346.144 62.7737V160.021L333.798 159.95ZM375.946 182.433V79.8322L388.293 80.0463V182.433H375.946ZM298 141.321V47.2855L310.418 41.3257V138.573L298 141.321ZM379.769 91.145L299.526 52.4601L313.965 45.8223L385.127 79.9393L379.805 91.145H379.769ZM459.791 57.9203L377.188 11.3485L382.12 0L465.831 47.0714L459.827 57.9203H459.791ZM382.545 188L298 141.535L303.996 130.677L387.92 176.83L382.545 188ZM307.615 56.1002L298 47.2855L382.12 0.214123L387.991 11.3396L307.615 56.1002ZM453.645 140.857V51.3895L465.991 47.1071V140.893L453.645 140.857ZM382.918 141.58L377.241 130.553L456.909 89.0841L462.585 100.12L382.918 141.616V141.58ZM380.257 92.9383L374.935 81.7325L456.536 42.2893L461.858 53.4951L380.257 92.9383ZM382.554 187.964L377.153 176.785L457.929 131.043L466 140.643L382.554 187.929V187.964Z" fill="#6ADFBE"/>
<path d="M245.088 238.4V241.568H234.768V272H231.408V241.568H221.088V238.4H245.088ZM268.664 254.576C270.296 255.28 271.592 256.352 272.552 257.792C273.544 259.2 274.04 260.816 274.04 262.64C274.04 265.232 273.128 267.44 271.304 269.264C269.48 271.088 267.272 272 264.68 272H250.04V238.4H263.576C266.072 238.4 268.2 239.296 269.96 241.088C271.72 242.848 272.6 244.96 272.6 247.424C272.6 250.56 271.288 252.944 268.664 254.576ZM263.576 241.568H253.4V253.28H263.576C265.144 253.28 266.472 252.72 267.56 251.6C268.68 250.448 269.24 249.056 269.24 247.424C269.24 245.824 268.68 244.448 267.56 243.296C266.472 242.144 265.144 241.568 263.576 241.568ZM264.68 268.832C266.344 268.832 267.752 268.24 268.904 267.056C270.088 265.84 270.68 264.368 270.68 262.64C270.68 260.944 270.088 259.488 268.904 258.272C267.752 257.056 266.344 256.448 264.68 256.448H253.4V268.832H264.68ZM295.652 272.576C290.564 272.576 286.356 270.896 283.028 267.536C279.7 264.176 278.036 260.064 278.036 255.2C278.036 250.336 279.7 246.224 283.028 242.864C286.356 239.504 290.564 237.824 295.652 237.824C298.756 237.824 301.604 238.576 304.196 240.08C306.788 241.552 308.788 243.552 310.196 246.08L307.22 247.808C306.164 245.76 304.596 244.128 302.516 242.912C300.436 241.696 298.148 241.088 295.652 241.088C291.46 241.088 288.036 242.448 285.38 245.168C282.724 247.888 281.396 251.232 281.396 255.2C281.396 259.168 282.724 262.512 285.38 265.232C288.036 267.952 291.46 269.312 295.652 269.312C298.148 269.312 300.436 268.704 302.516 267.488C304.596 266.272 306.164 264.64 307.22 262.592L310.196 264.272C308.82 266.8 306.82 268.816 304.196 270.32C301.604 271.824 298.756 272.576 295.652 272.576ZM331.567 272.576C326.479 272.576 322.271 270.896 318.943 267.536C315.615 264.176 313.951 260.064 313.951 255.2C313.951 250.336 315.615 246.224 318.943 242.864C322.271 239.504 326.479 237.824 331.567 237.824C334.671 237.824 337.519 238.576 340.111 240.08C342.703 241.552 344.703 243.552 346.111 246.08L343.135 247.808C342.079 245.76 340.511 244.128 338.431 242.912C336.351 241.696 334.063 241.088 331.567 241.088C327.375 241.088 323.951 242.448 321.295 245.168C318.639 247.888 317.311 251.232 317.311 255.2C317.311 259.168 318.639 262.512 321.295 265.232C323.951 267.952 327.375 269.312 331.567 269.312C334.063 269.312 336.351 268.704 338.431 267.488C340.511 266.272 342.079 264.64 343.135 262.592L346.111 264.272C344.735 266.8 342.735 268.816 340.111 270.32C337.519 271.824 334.671 272.576 331.567 272.576ZM385.537 238.4H388.897V272H386.017L367.297 244.64V272H363.937V238.4H366.817L385.537 265.76V238.4ZM407.32 247.424C410.872 247.424 413.736 248.688 415.912 251.216C418.12 253.712 419.224 256.672 419.224 260.096C419.224 260.448 419.192 260.944 419.128 261.584H398.056C398.376 264.016 399.4 265.952 401.128 267.392C402.888 268.8 405.048 269.504 407.608 269.504C409.432 269.504 411 269.136 412.312 268.4C413.656 267.632 414.664 266.64 415.336 265.424L418.12 267.056C417.064 268.752 415.624 270.096 413.8 271.088C411.976 272.08 409.896 272.576 407.56 272.576C403.784 272.576 400.712 271.392 398.344 269.024C395.976 266.656 394.792 263.648 394.792 260C394.792 256.416 395.96 253.424 398.296 251.024C400.632 248.624 403.64 247.424 407.32 247.424ZM407.32 250.496C404.824 250.496 402.728 251.248 401.032 252.752C399.368 254.224 398.376 256.144 398.056 258.512H415.96C415.64 255.984 414.664 254.016 413.032 252.608C411.4 251.2 409.496 250.496 407.32 250.496ZM436.43 251.072H429.518V265.616C429.518 266.928 429.774 267.872 430.286 268.448C430.798 268.992 431.566 269.28 432.59 269.312C433.614 269.312 434.894 269.28 436.43 269.216V272C433.07 272.512 430.542 272.272 428.846 271.28C427.182 270.288 426.35 268.4 426.35 265.616V251.072H421.31V248H426.35V242.24L429.518 241.28V248H436.43V251.072ZM470.756 248H474.02L466.628 272H463.172L456.98 252.656L450.788 272H447.332L439.94 248H443.204L449.108 267.92L455.396 248H458.564L464.852 267.92L470.756 248ZM498.122 268.976C495.69 271.376 492.714 272.576 489.194 272.576C485.674 272.576 482.682 271.376 480.218 268.976C477.786 266.544 476.57 263.552 476.57 260C476.57 256.448 477.786 253.472 480.218 251.072C482.682 248.64 485.674 247.424 489.194 247.424C492.714 247.424 495.69 248.64 498.122 251.072C500.586 253.472 501.818 256.448 501.818 260C501.818 263.552 500.586 266.544 498.122 268.976ZM482.474 266.768C484.298 268.592 486.538 269.504 489.194 269.504C491.85 269.504 494.09 268.592 495.914 266.768C497.738 264.912 498.65 262.656 498.65 260C498.65 257.344 497.738 255.104 495.914 253.28C494.09 251.424 491.85 250.496 489.194 250.496C486.538 250.496 484.298 251.424 482.474 253.28C480.65 255.104 479.738 257.344 479.738 260C479.738 262.656 480.65 264.912 482.474 266.768ZM510.437 251.984C511.909 249.072 514.437 247.616 518.021 247.616V250.688C515.845 250.688 514.037 251.328 512.597 252.608C511.157 253.888 510.437 255.904 510.437 258.656V272H507.269V248H510.437V251.984ZM541.905 272H537.681L525.681 260.432V272H522.513V238.4H525.681V258.608L537.105 248H541.425L529.041 259.52L541.905 272Z" fill="black" fill-opacity="0.87"/>
<circle cx="58" cy="74" r="28" fill="#6ADFBE"/>
<path d="M49.9663 85.4593V67.4889L52.0241 68.5741V85.4717L49.9663 85.4593ZM56.9911 89.3659V71.5382L59.0488 71.5754V89.3659H56.9911ZM44 82.2224V65.8829L46.0696 64.8473V81.745L44 82.2224ZM57.6282 73.5039L44.2543 66.782L46.6609 65.6287L58.5211 71.5568L57.6341 73.5039H57.6282ZM70.9652 67.7308L57.198 59.6385L58.02 57.6666L71.9719 65.8457L70.9711 67.7308H70.9652ZM58.0909 90.3333L44 82.2596L44.9993 80.373L58.9867 88.3924L58.0909 90.3333ZM45.6024 67.4145L44 65.8829L58.02 57.7038L58.9986 59.637L45.6024 67.4145ZM69.9408 82.1418V66.596L71.9985 65.8519V82.148L69.9408 82.1418ZM58.153 82.2674L57.2069 80.3513L70.4848 73.1458L71.4309 75.0634L58.153 82.2736V82.2674ZM57.7095 73.8155L56.8226 71.8684L70.4227 65.0148L71.3096 66.9619L57.7095 73.8155ZM58.0924 90.3271L57.1921 88.3846L70.6548 80.4366L72 82.1046L58.0924 90.3209V90.3271Z" fill="white"/>
<rect x="684" y="52" width="56" height="56" rx="28" fill="#17CFA1"/>
<path d="M712.007 95.7498L698 87.2808L698 72.8727L705.215 77.2347L705.214 82.9205L712.007 87.0275L718.785 82.9276L718.786 77.2417L726 72.8815L726 87.2895L712.007 95.7498Z" fill="white"/>
<path d="M712.008 78.83L698 70.361L705.212 65.9998L712.005 70.1068L718.785 66.0078L726 70.3697L712.008 78.83Z" fill="white"/>
<rect y="146" width="56" height="56" rx="28" fill="url(#paint0_linear)"/>
<path d="M42.1463 165.887L41.8157 182.253L29.3378 189.457L29.5081 181.028L34.4328 178.186L34.5931 170.249L27.6532 166.429L22.7285 169.271L15.3456 165.204L27.8235 158L42.1463 165.887Z" fill="white"/>
<path d="M27.4932 174.347L27.1625 190.712L19.7796 186.647L19.9399 178.711L13 174.889L13.1703 166.46L27.4932 174.347Z" fill="white"/>
<circle cx="742" cy="183" r="28" fill="white"/>
<circle cx="742" cy="183" r="27.5" stroke="black" stroke-opacity="0.15"/>
<path d="M733.966 194.459V176.489L736.024 177.574V194.472L733.966 194.459ZM740.991 198.366V180.538L743.049 180.575V198.366H740.991ZM728 191.222V174.883L730.07 173.847V190.745L728 191.222ZM741.628 182.504L728.254 175.782L730.661 174.629L742.521 180.557L741.634 182.504H741.628ZM754.965 176.731L741.198 168.639L742.02 166.667L755.972 174.846L754.971 176.731H754.965ZM742.091 199.333L728 191.26L728.999 189.373L742.987 197.392L742.091 199.333ZM729.602 176.415L728 174.883L742.02 166.704L742.999 168.637L729.602 176.415ZM753.941 191.142V175.596L755.999 174.852V191.148L753.941 191.142ZM742.153 191.267L741.207 189.351L754.485 182.146L755.431 184.063L742.153 191.274V191.267ZM741.71 182.815L740.823 180.868L754.423 174.015L755.31 175.962L741.71 182.815ZM742.092 199.327L741.192 197.385L754.655 189.437L756 191.105L742.092 199.321V199.327Z" fill="url(#paint1_linear)"/>
<defs>
<linearGradient id="paint0_linear" x1="-17.3091" y1="174" x2="28.0224" y2="174.148" gradientUnits="userSpaceOnUse">
<stop stop-color="#00F5A0"/>
<stop offset="1" stop-color="#00D9F5"/>
</linearGradient>
<linearGradient id="paint1_linear" x1="726.727" y1="183" x2="757.273" y2="183" gradientUnits="userSpaceOnUse">
<stop stop-color="#30AD8E"/>
<stop offset="1" stop-color="#6ADFBE"/>
</linearGradient>
</defs>
</svg>
