<svg width="124" height="39" viewBox="0 0 124 39" fill="none" xmlns="http://www.w3.org/2000/svg">
<rect width="124" height="39" rx="2" fill="black" fill-opacity="0.87"/>
<path d="M34.6878 27.9191V14.7164L36.3046 15.5137V27.9282L34.6878 27.9191ZM40.2073 30.7893V17.6913L41.8241 17.7187V30.7893H40.2073ZM30 25.541V13.5364L31.6261 12.7756V25.1902L30 25.541ZM40.7079 19.1355L30.1998 14.197L32.0907 13.3497L41.4094 17.705L40.7125 19.1355H40.7079ZM51.1869 14.8941L40.3699 8.94875L41.0157 7.5L51.9779 13.5091L51.1916 14.8941H51.1869ZM41.0714 31.5L30 25.5683L30.7852 24.1822L41.7753 30.074L41.0714 31.5ZM31.2591 14.6617L30 13.5364L41.0157 7.52733L41.7846 8.94761L31.2591 14.6617ZM50.382 25.4818V14.0604L51.9988 13.5137V25.4863L50.382 25.4818ZM41.1202 25.574L40.3769 24.1663L50.8095 18.8724L51.5528 20.2813L41.1202 25.5786V25.574ZM40.7718 19.3645L40.0749 17.9339L50.7607 12.8986L51.4576 14.3292L40.7718 19.3645ZM41.0726 31.4954L40.3652 30.0683L50.943 24.2289L52 25.4544L41.0726 31.4909V31.4954Z" fill="white"/>
<path d="M60.8218 24.5L57.5738 13.3H58.7578L61.5258 22.98L64.4378 13.3H65.7498L68.6618 22.98L71.4298 13.3H72.6138L69.3658 24.5H68.0218L65.0938 14.772L62.1658 24.5H60.8218ZM77.7066 16.308C78.8906 16.308 79.8453 16.7293 80.5706 17.572C81.3066 18.404 81.6746 19.3907 81.6746 20.532C81.6746 20.6493 81.664 20.8147 81.6426 21.028H74.6186C74.7253 21.8387 75.0666 22.484 75.6426 22.964C76.2293 23.4333 76.9493 23.668 77.8026 23.668C78.4106 23.668 78.9333 23.5453 79.3706 23.3C79.8186 23.044 80.1546 22.7133 80.3786 22.308L81.3066 22.852C80.9546 23.4173 80.4746 23.8653 79.8666 24.196C79.2586 24.5267 78.5653 24.692 77.7866 24.692C76.528 24.692 75.504 24.2973 74.7146 23.508C73.9253 22.7187 73.5306 21.716 73.5306 20.5C73.5306 19.3053 73.92 18.308 74.6986 17.508C75.4773 16.708 76.48 16.308 77.7066 16.308ZM77.7066 17.332C76.8746 17.332 76.176 17.5827 75.6106 18.084C75.056 18.5747 74.7253 19.2147 74.6186 20.004H80.5866C80.48 19.1613 80.1546 18.5053 79.6106 18.036C79.0666 17.5667 78.432 17.332 77.7066 17.332ZM88.3924 16.308C89.5337 16.308 90.5044 16.7133 91.3044 17.524C92.115 18.3347 92.5204 19.3267 92.5204 20.5C92.5204 21.6733 92.115 22.6653 91.3044 23.476C90.5044 24.2867 89.5337 24.692 88.3924 24.692C86.9737 24.692 85.8964 24.1053 85.1604 22.932V24.5H84.1044V13.3H85.1604V18.068C85.8964 16.8947 86.9737 16.308 88.3924 16.308ZM86.0724 22.756C86.6804 23.364 87.427 23.668 88.3124 23.668C89.1977 23.668 89.9444 23.364 90.5524 22.756C91.1604 22.1373 91.4644 21.3853 91.4644 20.5C91.4644 19.6147 91.1604 18.868 90.5524 18.26C89.9444 17.6413 89.1977 17.332 88.3124 17.332C87.427 17.332 86.6804 17.6413 86.0724 18.26C85.4644 18.868 85.1604 19.6147 85.1604 20.5C85.1604 21.3853 85.4644 22.1373 86.0724 22.756Z" fill="white"/>
</svg>
